<?xml version="1.0" encoding="utf-8"?>
<!-- Generator: Adobe Illustrator 25.2.3, SVG Export Plug-In . SVG Version: 6.00 Build 0)  -->
<svg version="1.1" xmlns="http://www.w3.org/2000/svg" xmlns:xlink="http://www.w3.org/1999/xlink" x="0px" y="0px"
	 viewBox="0 0 841.89 595.28" style="enable-background:new 0 0 841.89 595.28;" xml:space="preserve">
<style type="text/css">
	.st0{display:none;}
	.st1{display:inline;fill:#121312;stroke:#000000;stroke-miterlimit:10;}
	.st2{fill:#010202;}
</style>
<g id="Capa_1" class="st0">
	<rect class="st1" width="841.89" height="595.28"/>
</g>
<g id="Capa_2">
	<path class="st2" d="M0,126.18l11.69,7.03c11.69,6.77,35.08,21.24,58.46,21.04c23.39,0.2,46.77-14.27,70.16-35.11
		c23.39-21.24,46.77-48.85,70.16-42.08c23.39,7.03,46.77,49.11,70.16,52.6c23.39,3.75,46.77-31.75,70.16-28.01
		c23.39,3.48,46.77,45.56,70.16,42.08c23.39-3.75,46.77-52.4,70.16-66.66c23.39-14,46.77,7.03,70.16,7.03s46.77-21.04,70.16-14
		c23.39,6.77,46.77,42.27,70.16,52.6c23.39,10.72,46.77-3.75,70.16,0c23.39,3.48,46.77,24.52,58.46,35.04l11.69,10.52V-0.04H830.2
		c-11.69,0-35.08,0-58.46,0c-23.39,0-46.77,0-70.16,0c-23.39,0-46.77,0-70.16,0c-23.39,0-46.77,0-70.16,0s-46.77,0-70.16,0
		c-23.39,0-46.77,0-70.16,0s-46.77,0-70.16,0c-23.39,0-46.77,0-70.16,0s-46.77,0-70.16,0s-46.77,0-70.16,0s-46.77,0-70.16,0
		s-46.77,0-58.46,0H0V126.18z"/>
	<path class="st2" d="M0,465.19l11.69-7.25c11.69-6.98,35.08-21.88,58.46-21.68c23.39-0.2,46.77,14.7,70.16,36.18
		c23.39,21.88,46.77,50.34,70.16,43.36c23.39-7.25,46.77-50.61,70.16-54.2c23.39-3.86,46.77,32.73,70.16,28.86
		c23.39-3.59,46.77-46.95,70.16-43.36c23.39,3.86,46.77,54,70.16,68.7c23.39,14.43,46.77-7.25,70.16-7.25s46.77,21.68,70.16,14.43
		c23.39-6.98,46.77-43.57,70.16-54.2c23.39-11.04,46.77,3.86,70.16,0c23.39-3.59,46.77-25.27,58.46-36.11l11.69-10.84v173.45H830.2
		c-11.69,0-35.08,0-58.46,0c-23.39,0-46.77,0-70.16,0c-23.39,0-46.77,0-70.16,0c-23.39,0-46.77,0-70.16,0s-46.77,0-70.16,0
		c-23.39,0-46.77,0-70.16,0s-46.77,0-70.16,0c-23.39,0-46.77,0-70.16,0s-46.77,0-70.16,0s-46.77,0-70.16,0s-46.77,0-70.16,0
		s-46.77,0-58.46,0H0V465.19z"/>
</g>
</svg>
