<?xml version="1.0" encoding="utf-8"?>
<!-- Generator: Adobe Illustrator 25.2.3, SVG Export Plug-In . SVG Version: 6.00 Build 0)  -->
<svg version="1.1" id="Capa_1" xmlns="http://www.w3.org/2000/svg" xmlns:xlink="http://www.w3.org/1999/xlink" x="0px" y="0px"
	 viewBox="0 0 841.89 595.28" style="enable-background:new 0 0 841.89 595.28;" xml:space="preserve">
<style type="text/css">
	.st0{fill:#30313F;}
	.st1{fill:#475BA6;}
	.st2{fill:#302F42;}
	.st3{fill:#3C3C56;}
	.st4{fill:#272733;}
	.st5{fill:#8A85A8;}
	.st6{opacity:0.1;fill:#020203;enable-background:new    ;}
	.st7{fill:#F2F2F2;}
	.st8{fill:#403E56;}
	.st9{fill:#F6B6B9;}
</style>
<rect x="208.23" y="124.49" class="st0" width="426" height="229.15"/>
<rect x="285.24" y="156.8" class="st1" width="3.76" height="6.01"/>
<rect x="298.02" y="155.3" class="st1" width="3.76" height="6.01"/>
<rect x="304.78" y="155.3" class="st1" width="3.76" height="6.01"/>
<rect x="304.78" y="173.33" class="st1" width="3.76" height="6.01"/>
<rect x="312.29" y="164.31" class="st1" width="3.76" height="6.01"/>
<rect x="312.29" y="174.08" class="st1" width="3.76" height="6.01"/>
<rect x="304.78" y="192.86" class="st1" width="3.76" height="6.01"/>
<rect x="312.29" y="202.63" class="st1" width="3.76" height="6.01"/>
<rect x="304.78" y="239.44" class="st1" width="3.76" height="6.01"/>
<rect x="298.02" y="202.63" class="st1" width="3.76" height="6.01"/>
<rect x="285.24" y="166.57" class="st1" width="3.76" height="6.01"/>
<rect x="285.24" y="260.48" class="st1" width="3.76" height="6.01"/>
<rect x="285.24" y="280.02" class="st1" width="3.76" height="6.01"/>
<rect x="285.24" y="289.78" class="st1" width="3.76" height="6.01"/>
<rect x="283.74" y="177.08" class="st1" width="5.26" height="0.75"/>
<rect x="304.03" y="186.1" class="st1" width="5.26" height="0.75"/>
<rect x="283.74" y="225.17" class="st1" width="5.26" height="0.75"/>
<rect x="283.74" y="233.43" class="st1" width="5.26" height="0.75"/>
<rect x="304.03" y="281.52" class="st1" width="5.26" height="0.75"/>
<rect x="298.02" y="299.55" class="st1" width="5.26" height="0.75"/>
<polygon class="st1" points="285.24,183.85 285.24,185.35 286.75,185.35 286.75,188.35 285.24,188.35 285.24,189.86 289,189.86 
	289,183.85 "/>
<polygon class="st1" points="298.02,173.33 298.02,174.83 299.52,174.83 299.52,177.84 298.02,177.84 298.02,179.34 301.77,179.34 
	301.77,173.33 "/>
<polygon class="st1" points="312.29,183.09 312.29,184.6 313.79,184.6 313.79,187.6 312.29,187.6 312.29,189.11 316.05,189.11 
	316.05,183.09 "/>
<polygon class="st1" points="312.29,212.4 312.29,213.9 313.79,213.9 313.79,216.9 312.29,216.9 312.29,218.41 316.05,218.41 
	316.05,212.4 "/>
<polygon class="st1" points="312.29,222.16 312.29,223.67 313.79,223.67 313.79,226.67 312.29,226.67 312.29,228.17 316.05,228.17 
	316.05,222.16 "/>
<polygon class="st1" points="312.29,192.11 312.29,193.61 313.79,193.61 313.79,196.62 312.29,196.62 312.29,198.12 316.05,198.12 
	316.05,192.11 "/>
<polygon class="st1" points="304.78,164.31 304.78,165.81 306.28,165.81 306.28,168.82 304.78,168.82 304.78,170.32 308.53,170.32 
	308.53,164.31 "/>
<rect x="304.78" y="212.4" class="st1" width="3.76" height="6.01"/>
<rect x="304.78" y="230.43" class="st1" width="3.76" height="6.01"/>
<polygon class="st1" points="304.78,221.41 304.78,222.91 306.28,222.91 306.28,225.92 304.78,225.92 304.78,227.42 308.53,227.42 
	308.53,221.41 "/>
<polygon class="st1" points="298.02,183.09 298.02,184.6 299.52,184.6 299.52,187.6 298.02,187.6 298.02,189.11 301.77,189.11 
	301.77,183.09 "/>
<polygon class="st1" points="298.02,192.86 298.02,194.37 299.52,194.37 299.52,197.37 298.02,197.37 298.02,198.87 301.77,198.87 
	301.77,192.86 "/>
<rect x="298.02" y="222.16" class="st1" width="3.76" height="6.01"/>
<polygon class="st1" points="298.02,212.4 298.02,213.9 299.52,213.9 299.52,216.9 298.02,216.9 298.02,218.41 301.77,218.41 
	301.77,212.4 "/>
<rect x="298.02" y="241.7" class="st1" width="3.76" height="6.01"/>
<polygon class="st1" points="298.02,231.93 298.02,233.43 299.52,233.43 299.52,236.44 298.02,236.44 298.02,237.94 301.77,237.94 
	301.77,231.93 "/>
<rect x="298.02" y="261.23" class="st1" width="3.76" height="6.01"/>
<rect x="304.78" y="259.73" class="st1" width="3.76" height="6.01"/>
<polygon class="st1" points="298.02,251.47 298.02,252.97 299.52,252.97 299.52,255.97 298.02,255.97 298.02,257.48 301.77,257.48 
	301.77,251.47 "/>
<polygon class="st1" points="312.29,251.47 312.29,252.97 313.79,252.97 313.79,255.97 312.29,255.97 312.29,257.48 316.05,257.48 
	316.05,251.47 "/>
<rect x="350.61" y="164.31" class="st1" width="3.76" height="6.01"/>
<rect x="350.61" y="174.08" class="st1" width="3.76" height="6.01"/>
<rect x="350.61" y="202.63" class="st1" width="3.76" height="6.01"/>
<polygon class="st1" points="350.61,183.09 350.61,184.6 352.11,184.6 352.11,187.6 350.61,187.6 350.61,189.11 354.36,189.11 
	354.36,183.09 "/>
<polygon class="st1" points="350.61,212.4 350.61,213.9 352.11,213.9 352.11,216.9 350.61,216.9 350.61,218.41 354.36,218.41 
	354.36,212.4 "/>
<polygon class="st1" points="350.61,222.16 350.61,223.67 352.11,223.67 352.11,226.67 350.61,226.67 350.61,228.17 354.36,228.17 
	354.36,222.16 "/>
<polygon class="st1" points="350.61,192.11 350.61,193.61 352.11,193.61 352.11,196.62 350.61,196.62 350.61,198.12 354.36,198.12 
	354.36,192.11 "/>
<polygon class="st1" points="350.61,251.47 350.61,252.97 352.11,252.97 352.11,255.97 350.61,255.97 350.61,257.48 354.36,257.48 
	354.36,251.47 "/>
<rect x="298.02" y="280.77" class="st1" width="3.76" height="6.01"/>
<rect x="304.78" y="269.5" class="st1" width="3.76" height="6.01"/>
<rect x="298.02" y="306.31" class="st1" width="3.76" height="6.01"/>
<rect x="304.78" y="288.28" class="st1" width="3.76" height="6.01"/>
<polygon class="st1" points="298.02,271 298.02,272.5 299.52,272.5 299.52,275.51 298.02,275.51 298.02,277.01 301.77,277.01 
	301.77,271 "/>
<polygon class="st1" points="298.02,316.83 298.02,318.33 299.52,318.33 299.52,321.34 298.02,321.34 298.02,322.84 301.77,322.84 
	301.77,316.83 "/>
<rect x="339.34" y="155.3" class="st1" width="3.76" height="6.01"/>
<rect x="339.34" y="202.63" class="st1" width="3.76" height="6.01"/>
<rect x="339.34" y="299.55" class="st1" width="5.26" height="0.75"/>
<polygon class="st1" points="339.34,173.33 339.34,174.83 340.84,174.83 340.84,177.84 339.34,177.84 339.34,179.34 343.1,179.34 
	343.1,173.33 "/>
<polygon class="st1" points="339.34,183.09 339.34,184.6 340.84,184.6 340.84,187.6 339.34,187.6 339.34,189.11 343.1,189.11 
	343.1,183.09 "/>
<polygon class="st1" points="339.34,192.86 339.34,194.37 340.84,194.37 340.84,197.37 339.34,197.37 339.34,198.87 343.1,198.87 
	343.1,192.86 "/>
<rect x="339.34" y="222.16" class="st1" width="3.76" height="6.01"/>
<polygon class="st1" points="339.34,212.4 339.34,213.9 340.84,213.9 340.84,216.9 339.34,216.9 339.34,218.41 343.1,218.41 
	343.1,212.4 "/>
<rect x="339.34" y="241.7" class="st1" width="3.76" height="6.01"/>
<polygon class="st1" points="339.34,231.93 339.34,233.43 340.84,233.43 340.84,236.44 339.34,236.44 339.34,237.94 343.1,237.94 
	343.1,231.93 "/>
<rect x="339.34" y="261.23" class="st1" width="3.76" height="6.01"/>
<polygon class="st1" points="339.34,251.47 339.34,252.97 340.84,252.97 340.84,255.97 339.34,255.97 339.34,257.48 343.1,257.48 
	343.1,251.47 "/>
<rect x="339.34" y="280.77" class="st1" width="3.76" height="6.01"/>
<rect x="339.34" y="306.31" class="st1" width="3.76" height="6.01"/>
<polygon class="st1" points="339.34,271 339.34,272.5 340.84,272.5 340.84,275.51 339.34,275.51 339.34,277.01 343.1,277.01 
	343.1,271 "/>
<polygon class="st1" points="339.34,316.83 339.34,318.33 340.84,318.33 340.84,321.34 339.34,321.34 339.34,322.84 343.1,322.84 
	343.1,316.83 "/>
<rect x="357.37" y="155.3" class="st1" width="3.76" height="6.01"/>
<rect x="357.37" y="202.63" class="st1" width="3.76" height="6.01"/>
<rect x="357.37" y="299.55" class="st1" width="5.26" height="0.75"/>
<polygon class="st1" points="357.37,173.33 357.37,174.83 358.87,174.83 358.87,177.84 357.37,177.84 357.37,179.34 361.13,179.34 
	361.13,173.33 "/>
<polygon class="st1" points="357.37,183.09 357.37,184.6 358.87,184.6 358.87,187.6 357.37,187.6 357.37,189.11 361.13,189.11 
	361.13,183.09 "/>
<polygon class="st1" points="357.37,192.86 357.37,194.37 358.87,194.37 358.87,197.37 357.37,197.37 357.37,198.87 361.13,198.87 
	361.13,192.86 "/>
<rect x="357.37" y="222.16" class="st1" width="3.76" height="6.01"/>
<polygon class="st1" points="357.37,212.4 357.37,213.9 358.87,213.9 358.87,216.9 357.37,216.9 357.37,218.41 361.13,218.41 
	361.13,212.4 "/>
<rect x="357.37" y="241.7" class="st1" width="3.76" height="6.01"/>
<polygon class="st1" points="357.37,231.93 357.37,233.43 358.87,233.43 358.87,236.44 357.37,236.44 357.37,237.94 361.13,237.94 
	361.13,231.93 "/>
<rect x="357.37" y="261.23" class="st1" width="3.76" height="6.01"/>
<polygon class="st1" points="357.37,251.47 357.37,252.97 358.87,252.97 358.87,255.97 357.37,255.97 357.37,257.48 361.13,257.48 
	361.13,251.47 "/>
<rect x="357.37" y="280.77" class="st1" width="3.76" height="6.01"/>
<rect x="357.37" y="306.31" class="st1" width="3.76" height="6.01"/>
<polygon class="st1" points="357.37,271 357.37,272.5 358.87,272.5 358.87,275.51 357.37,275.51 357.37,277.01 361.13,277.01 
	361.13,271 "/>
<polygon class="st1" points="357.37,316.83 357.37,318.33 358.87,318.33 358.87,321.34 357.37,321.34 357.37,322.84 361.13,322.84 
	361.13,316.83 "/>
<polygon class="st1" points="304.78,306.31 304.78,307.81 306.28,307.81 306.28,310.82 304.78,310.82 304.78,312.32 308.53,312.32 
	308.53,306.31 "/>
<polygon class="st1" points="304.78,316.08 304.78,317.58 306.28,317.58 306.28,320.59 304.78,320.59 304.78,322.09 308.53,322.09 
	308.53,316.08 "/>
<polygon class="st1" points="285.24,202.63 285.24,204.13 286.75,204.13 286.75,207.14 285.24,207.14 285.24,208.64 289,208.64 
	289,202.63 "/>
<polygon class="st1" points="285.24,240.95 285.24,242.45 286.75,242.45 286.75,245.45 285.24,245.45 285.24,246.96 289,246.96 
	289,240.95 "/>
<polygon class="st1" points="285.24,250.71 285.24,252.22 286.75,252.22 286.75,255.22 285.24,255.22 285.24,256.72 289,256.72 
	289,250.71 "/>
<polygon class="st1" points="285.24,270.25 285.24,271.75 286.75,271.75 286.75,274.76 285.24,274.76 285.24,276.26 289,276.26 
	289,270.25 "/>
<polygon class="st1" points="285.24,298.05 285.24,299.55 286.75,299.55 286.75,302.56 285.24,302.56 285.24,304.06 289,304.06 
	289,298.05 "/>
<polygon class="st1" points="285.24,306.31 285.24,307.81 286.75,307.81 286.75,310.82 285.24,310.82 285.24,312.32 289,312.32 
	289,306.31 "/>
<rect x="324.31" y="156.8" class="st1" width="3.76" height="6.01"/>
<rect x="324.31" y="166.57" class="st1" width="3.76" height="6.01"/>
<rect x="322.81" y="177.08" class="st1" width="5.26" height="0.75"/>
<rect x="322.81" y="225.17" class="st1" width="5.26" height="0.75"/>
<rect x="322.81" y="233.43" class="st1" width="5.26" height="0.75"/>
<polygon class="st1" points="324.31,183.85 324.31,185.35 325.81,185.35 325.81,188.35 324.31,188.35 324.31,189.86 328.07,189.86 
	328.07,183.85 "/>
<polygon class="st1" points="324.31,202.63 324.31,204.13 325.81,204.13 325.81,207.14 324.31,207.14 324.31,208.64 328.07,208.64 
	328.07,202.63 "/>
<polygon class="st1" points="324.31,240.95 324.31,242.45 325.81,242.45 325.81,245.45 324.31,245.45 324.31,246.96 328.07,246.96 
	328.07,240.95 "/>
<rect x="367.14" y="222.16" class="st1" width="3.76" height="6.01"/>
<rect x="367.14" y="231.93" class="st1" width="3.76" height="6.01"/>
<rect x="365.63" y="242.45" class="st1" width="5.26" height="0.75"/>
<rect x="365.63" y="290.53" class="st1" width="5.26" height="0.75"/>
<rect x="365.63" y="298.8" class="st1" width="5.26" height="0.75"/>
<polygon class="st1" points="367.14,249.21 367.14,250.71 368.64,250.71 368.64,253.72 367.14,253.72 367.14,255.22 370.89,255.22 
	370.89,249.21 "/>
<polygon class="st1" points="367.14,267.99 367.14,269.5 368.64,269.5 368.64,272.5 367.14,272.5 367.14,274.01 370.89,274.01 
	370.89,267.99 "/>
<polygon class="st1" points="367.14,306.31 367.14,307.81 368.64,307.81 368.64,310.82 367.14,310.82 367.14,312.32 370.89,312.32 
	370.89,306.31 "/>
<rect x="379.16" y="156.8" class="st1" width="3.76" height="6.01"/>
<rect x="391.93" y="155.3" class="st1" width="3.76" height="6.01"/>
<rect x="398.69" y="155.3" class="st1" width="3.76" height="6.01"/>
<rect x="398.69" y="173.33" class="st1" width="3.76" height="6.01"/>
<rect x="406.21" y="164.31" class="st1" width="3.76" height="6.01"/>
<rect x="406.21" y="174.08" class="st1" width="3.76" height="6.01"/>
<rect x="398.69" y="192.86" class="st1" width="3.76" height="6.01"/>
<rect x="406.21" y="202.63" class="st1" width="3.76" height="6.01"/>
<rect x="398.69" y="239.44" class="st1" width="3.76" height="6.01"/>
<rect x="391.93" y="202.63" class="st1" width="3.76" height="6.01"/>
<rect x="379.16" y="166.57" class="st1" width="3.76" height="6.01"/>
<rect x="379.16" y="260.48" class="st1" width="3.76" height="6.01"/>
<rect x="379.16" y="280.02" class="st1" width="3.76" height="6.01"/>
<rect x="379.16" y="289.78" class="st1" width="3.76" height="6.01"/>
<rect x="377.66" y="177.08" class="st1" width="5.26" height="0.75"/>
<rect x="397.94" y="186.1" class="st1" width="5.26" height="0.75"/>
<rect x="377.66" y="225.17" class="st1" width="5.26" height="0.75"/>
<rect x="377.66" y="233.43" class="st1" width="5.26" height="0.75"/>
<rect x="397.94" y="281.52" class="st1" width="5.26" height="0.75"/>
<rect x="391.93" y="299.55" class="st1" width="5.26" height="0.75"/>
<polygon class="st1" points="379.16,183.85 379.16,185.35 380.66,185.35 380.66,188.35 379.16,188.35 379.16,189.86 382.92,189.86 
	382.92,183.85 "/>
<polygon class="st1" points="391.93,173.33 391.93,174.83 393.43,174.83 393.43,177.84 391.93,177.84 391.93,179.34 395.69,179.34 
	395.69,173.33 "/>
<polygon class="st1" points="406.21,183.09 406.21,184.6 407.71,184.6 407.71,187.6 406.21,187.6 406.21,189.11 409.96,189.11 
	409.96,183.09 "/>
<polygon class="st1" points="406.21,212.4 406.21,213.9 407.71,213.9 407.71,216.9 406.21,216.9 406.21,218.41 409.96,218.41 
	409.96,212.4 "/>
<polygon class="st1" points="406.21,222.16 406.21,223.67 407.71,223.67 407.71,226.67 406.21,226.67 406.21,228.17 409.96,228.17 
	409.96,222.16 "/>
<polygon class="st1" points="406.21,192.11 406.21,193.61 407.71,193.61 407.71,196.62 406.21,196.62 406.21,198.12 409.96,198.12 
	409.96,192.11 "/>
<polygon class="st1" points="398.69,164.31 398.69,165.81 400.2,165.81 400.2,168.82 398.69,168.82 398.69,170.32 402.45,170.32 
	402.45,164.31 "/>
<rect x="398.69" y="212.4" class="st1" width="3.76" height="6.01"/>
<rect x="398.69" y="230.43" class="st1" width="3.76" height="6.01"/>
<polygon class="st1" points="398.69,221.41 398.69,222.91 400.2,222.91 400.2,225.92 398.69,225.92 398.69,227.42 402.45,227.42 
	402.45,221.41 "/>
<polygon class="st1" points="391.93,183.09 391.93,184.6 393.43,184.6 393.43,187.6 391.93,187.6 391.93,189.11 395.69,189.11 
	395.69,183.09 "/>
<polygon class="st1" points="391.93,192.86 391.93,194.37 393.43,194.37 393.43,197.37 391.93,197.37 391.93,198.87 395.69,198.87 
	395.69,192.86 "/>
<rect x="391.93" y="222.16" class="st1" width="3.76" height="6.01"/>
<polygon class="st1" points="391.93,212.4 391.93,213.9 393.43,213.9 393.43,216.9 391.93,216.9 391.93,218.41 395.69,218.41 
	395.69,212.4 "/>
<rect x="391.93" y="241.7" class="st1" width="3.76" height="6.01"/>
<polygon class="st1" points="391.93,231.93 391.93,233.43 393.43,233.43 393.43,236.44 391.93,236.44 391.93,237.94 395.69,237.94 
	395.69,231.93 "/>
<rect x="391.93" y="261.23" class="st1" width="3.76" height="6.01"/>
<rect x="398.69" y="259.73" class="st1" width="3.76" height="6.01"/>
<polygon class="st1" points="391.93,251.47 391.93,252.97 393.43,252.97 393.43,255.97 391.93,255.97 391.93,257.48 395.69,257.48 
	395.69,251.47 "/>
<polygon class="st1" points="406.21,251.47 406.21,252.97 407.71,252.97 407.71,255.97 406.21,255.97 406.21,257.48 409.96,257.48 
	409.96,251.47 "/>
<rect x="444.52" y="164.31" class="st1" width="3.76" height="6.01"/>
<rect x="444.52" y="174.08" class="st1" width="3.76" height="6.01"/>
<rect x="444.52" y="202.63" class="st1" width="3.76" height="6.01"/>
<polygon class="st1" points="444.52,183.09 444.52,184.6 446.03,184.6 446.03,187.6 444.52,187.6 444.52,189.11 448.28,189.11 
	448.28,183.09 "/>
<polygon class="st1" points="444.52,212.4 444.52,213.9 446.03,213.9 446.03,216.9 444.52,216.9 444.52,218.41 448.28,218.41 
	448.28,212.4 "/>
<polygon class="st1" points="444.52,222.16 444.52,223.67 446.03,223.67 446.03,226.67 444.52,226.67 444.52,228.17 448.28,228.17 
	448.28,222.16 "/>
<polygon class="st1" points="444.52,192.11 444.52,193.61 446.03,193.61 446.03,196.62 444.52,196.62 444.52,198.12 448.28,198.12 
	448.28,192.11 "/>
<polygon class="st1" points="444.52,251.47 444.52,252.97 446.03,252.97 446.03,255.97 444.52,255.97 444.52,257.48 448.28,257.48 
	448.28,251.47 "/>
<rect x="391.93" y="280.77" class="st1" width="3.76" height="6.01"/>
<rect x="398.69" y="269.5" class="st1" width="3.76" height="6.01"/>
<rect x="391.93" y="306.31" class="st1" width="3.76" height="6.01"/>
<rect x="398.69" y="288.28" class="st1" width="3.76" height="6.01"/>
<polygon class="st1" points="391.93,271 391.93,272.5 393.43,272.5 393.43,275.51 391.93,275.51 391.93,277.01 395.69,277.01 
	395.69,271 "/>
<polygon class="st1" points="391.93,316.83 391.93,318.33 393.43,318.33 393.43,321.34 391.93,321.34 391.93,322.84 395.69,322.84 
	395.69,316.83 "/>
<rect x="433.25" y="155.3" class="st1" width="3.76" height="6.01"/>
<rect x="433.25" y="202.63" class="st1" width="3.76" height="6.01"/>
<rect x="433.25" y="299.55" class="st1" width="5.26" height="0.75"/>
<polygon class="st1" points="433.25,173.33 433.25,174.83 434.76,174.83 434.76,177.84 433.25,177.84 433.25,179.34 437.01,179.34 
	437.01,173.33 "/>
<polygon class="st1" points="433.25,183.09 433.25,184.6 434.76,184.6 434.76,187.6 433.25,187.6 433.25,189.11 437.01,189.11 
	437.01,183.09 "/>
<polygon class="st1" points="433.25,192.86 433.25,194.37 434.76,194.37 434.76,197.37 433.25,197.37 433.25,198.87 437.01,198.87 
	437.01,192.86 "/>
<rect x="433.25" y="222.16" class="st1" width="3.76" height="6.01"/>
<polygon class="st1" points="433.25,212.4 433.25,213.9 434.76,213.9 434.76,216.9 433.25,216.9 433.25,218.41 437.01,218.41 
	437.01,212.4 "/>
<rect x="433.25" y="241.7" class="st1" width="3.76" height="6.01"/>
<polygon class="st1" points="433.25,231.93 433.25,233.43 434.76,233.43 434.76,236.44 433.25,236.44 433.25,237.94 437.01,237.94 
	437.01,231.93 "/>
<rect x="433.25" y="261.23" class="st1" width="3.76" height="6.01"/>
<polygon class="st1" points="433.25,251.47 433.25,252.97 434.76,252.97 434.76,255.97 433.25,255.97 433.25,257.48 437.01,257.48 
	437.01,251.47 "/>
<rect x="433.25" y="280.77" class="st1" width="3.76" height="6.01"/>
<rect x="433.25" y="306.31" class="st1" width="3.76" height="6.01"/>
<polygon class="st1" points="433.25,271 433.25,272.5 434.76,272.5 434.76,275.51 433.25,275.51 433.25,277.01 437.01,277.01 
	437.01,271 "/>
<polygon class="st1" points="433.25,316.83 433.25,318.33 434.76,318.33 434.76,321.34 433.25,321.34 433.25,322.84 437.01,322.84 
	437.01,316.83 "/>
<rect x="451.29" y="155.3" class="st1" width="3.76" height="6.01"/>
<rect x="451.29" y="202.63" class="st1" width="3.76" height="6.01"/>
<rect x="451.29" y="299.55" class="st1" width="5.26" height="0.75"/>
<polygon class="st1" points="451.29,173.33 451.29,174.83 452.79,174.83 452.79,177.84 451.29,177.84 451.29,179.34 455.04,179.34 
	455.04,173.33 "/>
<polygon class="st1" points="451.29,183.09 451.29,184.6 452.79,184.6 452.79,187.6 451.29,187.6 451.29,189.11 455.04,189.11 
	455.04,183.09 "/>
<polygon class="st1" points="451.29,192.86 451.29,194.37 452.79,194.37 452.79,197.37 451.29,197.37 451.29,198.87 455.04,198.87 
	455.04,192.86 "/>
<rect x="451.29" y="222.16" class="st1" width="3.76" height="6.01"/>
<polygon class="st1" points="451.29,212.4 451.29,213.9 452.79,213.9 452.79,216.9 451.29,216.9 451.29,218.41 455.04,218.41 
	455.04,212.4 "/>
<rect x="451.29" y="241.7" class="st1" width="3.76" height="6.01"/>
<polygon class="st1" points="451.29,231.93 451.29,233.43 452.79,233.43 452.79,236.44 451.29,236.44 451.29,237.94 455.04,237.94 
	455.04,231.93 "/>
<rect x="451.29" y="261.23" class="st1" width="3.76" height="6.01"/>
<polygon class="st1" points="451.29,251.47 451.29,252.97 452.79,252.97 452.79,255.97 451.29,255.97 451.29,257.48 455.04,257.48 
	455.04,251.47 "/>
<rect x="451.29" y="280.77" class="st1" width="3.76" height="6.01"/>
<rect x="451.29" y="306.31" class="st1" width="3.76" height="6.01"/>
<polygon class="st1" points="451.29,271 451.29,272.5 452.79,272.5 452.79,275.51 451.29,275.51 451.29,277.01 455.04,277.01 
	455.04,271 "/>
<polygon class="st1" points="451.29,316.83 451.29,318.33 452.79,318.33 452.79,321.34 451.29,321.34 451.29,322.84 455.04,322.84 
	455.04,316.83 "/>
<polygon class="st1" points="398.69,306.31 398.69,307.81 400.2,307.81 400.2,310.82 398.69,310.82 398.69,312.32 402.45,312.32 
	402.45,306.31 "/>
<polygon class="st1" points="398.69,316.08 398.69,317.58 400.2,317.58 400.2,320.59 398.69,320.59 398.69,322.09 402.45,322.09 
	402.45,316.08 "/>
<polygon class="st1" points="379.16,202.63 379.16,204.13 380.66,204.13 380.66,207.14 379.16,207.14 379.16,208.64 382.92,208.64 
	382.92,202.63 "/>
<polygon class="st1" points="379.16,240.95 379.16,242.45 380.66,242.45 380.66,245.45 379.16,245.45 379.16,246.96 382.92,246.96 
	382.92,240.95 "/>
<polygon class="st1" points="379.16,250.71 379.16,252.22 380.66,252.22 380.66,255.22 379.16,255.22 379.16,256.72 382.92,256.72 
	382.92,250.71 "/>
<polygon class="st1" points="379.16,270.25 379.16,271.75 380.66,271.75 380.66,274.76 379.16,274.76 379.16,276.26 382.92,276.26 
	382.92,270.25 "/>
<polygon class="st1" points="379.16,298.05 379.16,299.55 380.66,299.55 380.66,302.56 379.16,302.56 379.16,304.06 382.92,304.06 
	382.92,298.05 "/>
<polygon class="st1" points="379.16,306.31 379.16,307.81 380.66,307.81 380.66,310.82 379.16,310.82 379.16,312.32 382.92,312.32 
	382.92,306.31 "/>
<rect x="418.23" y="156.8" class="st1" width="3.76" height="6.01"/>
<rect x="418.23" y="166.57" class="st1" width="3.76" height="6.01"/>
<rect x="416.72" y="177.08" class="st1" width="5.26" height="0.75"/>
<rect x="416.72" y="225.17" class="st1" width="5.26" height="0.75"/>
<rect x="416.72" y="233.43" class="st1" width="5.26" height="0.75"/>
<polygon class="st1" points="418.23,183.85 418.23,185.35 419.73,185.35 419.73,188.35 418.23,188.35 418.23,189.86 421.98,189.86 
	421.98,183.85 "/>
<polygon class="st1" points="418.23,202.63 418.23,204.13 419.73,204.13 419.73,207.14 418.23,207.14 418.23,208.64 421.98,208.64 
	421.98,202.63 "/>
<polygon class="st1" points="418.23,240.95 418.23,242.45 419.73,242.45 419.73,245.45 418.23,245.45 418.23,246.96 421.98,246.96 
	421.98,240.95 "/>
<rect x="461.05" y="222.16" class="st1" width="3.76" height="6.01"/>
<rect x="461.05" y="231.93" class="st1" width="3.76" height="6.01"/>
<rect x="459.55" y="242.45" class="st1" width="5.26" height="0.75"/>
<rect x="459.55" y="290.53" class="st1" width="5.26" height="0.75"/>
<rect x="459.55" y="298.8" class="st1" width="5.26" height="0.75"/>
<polygon class="st1" points="461.05,249.21 461.05,250.71 462.56,250.71 462.56,253.72 461.05,253.72 461.05,255.22 464.81,255.22 
	464.81,249.21 "/>
<polygon class="st1" points="461.05,267.99 461.05,269.5 462.56,269.5 462.56,272.5 461.05,272.5 461.05,274.01 464.81,274.01 
	464.81,267.99 "/>
<polygon class="st1" points="461.05,306.31 461.05,307.81 462.56,307.81 462.56,310.82 461.05,310.82 461.05,312.32 464.81,312.32 
	464.81,306.31 "/>
<rect x="473.07" y="156.8" class="st1" width="3.76" height="6.01"/>
<rect x="485.85" y="155.3" class="st1" width="3.76" height="6.01"/>
<rect x="492.61" y="155.3" class="st1" width="3.76" height="6.01"/>
<rect x="492.61" y="173.33" class="st1" width="3.76" height="6.01"/>
<rect x="500.12" y="164.31" class="st1" width="3.76" height="6.01"/>
<rect x="500.12" y="174.08" class="st1" width="3.76" height="6.01"/>
<rect x="492.61" y="192.86" class="st1" width="3.76" height="6.01"/>
<rect x="500.12" y="202.63" class="st1" width="3.76" height="6.01"/>
<rect x="492.61" y="239.44" class="st1" width="3.76" height="6.01"/>
<rect x="485.85" y="202.63" class="st1" width="3.76" height="6.01"/>
<rect x="473.07" y="166.57" class="st1" width="3.76" height="6.01"/>
<rect x="473.07" y="260.48" class="st1" width="3.76" height="6.01"/>
<rect x="473.07" y="280.02" class="st1" width="3.76" height="6.01"/>
<rect x="473.07" y="289.78" class="st1" width="3.76" height="6.01"/>
<rect x="471.57" y="177.08" class="st1" width="5.26" height="0.75"/>
<rect x="491.86" y="186.1" class="st1" width="5.26" height="0.75"/>
<rect x="471.57" y="225.17" class="st1" width="5.26" height="0.75"/>
<rect x="471.57" y="233.43" class="st1" width="5.26" height="0.75"/>
<rect x="491.86" y="281.52" class="st1" width="5.26" height="0.75"/>
<rect x="485.85" y="299.55" class="st1" width="5.26" height="0.75"/>
<polygon class="st1" points="473.07,183.85 473.07,185.35 474.58,185.35 474.58,188.35 473.07,188.35 473.07,189.86 476.83,189.86 
	476.83,183.85 "/>
<polygon class="st1" points="485.85,173.33 485.85,174.83 487.35,174.83 487.35,177.84 485.85,177.84 485.85,179.34 489.6,179.34 
	489.6,173.33 "/>
<polygon class="st1" points="500.12,183.09 500.12,184.6 501.62,184.6 501.62,187.6 500.12,187.6 500.12,189.11 503.88,189.11 
	503.88,183.09 "/>
<polygon class="st1" points="500.12,212.4 500.12,213.9 501.62,213.9 501.62,216.9 500.12,216.9 500.12,218.41 503.88,218.41 
	503.88,212.4 "/>
<polygon class="st1" points="500.12,222.16 500.12,223.67 501.62,223.67 501.62,226.67 500.12,226.67 500.12,228.17 503.88,228.17 
	503.88,222.16 "/>
<polygon class="st1" points="500.12,192.11 500.12,193.61 501.62,193.61 501.62,196.62 500.12,196.62 500.12,198.12 503.88,198.12 
	503.88,192.11 "/>
<polygon class="st1" points="492.61,164.31 492.61,165.81 494.11,165.81 494.11,168.82 492.61,168.82 492.61,170.32 496.36,170.32 
	496.36,164.31 "/>
<rect x="492.61" y="212.4" class="st1" width="3.76" height="6.01"/>
<rect x="492.61" y="230.43" class="st1" width="3.76" height="6.01"/>
<polygon class="st1" points="492.61,221.41 492.61,222.91 494.11,222.91 494.11,225.92 492.61,225.92 492.61,227.42 496.36,227.42 
	496.36,221.41 "/>
<polygon class="st1" points="485.85,183.09 485.85,184.6 487.35,184.6 487.35,187.6 485.85,187.6 485.85,189.11 489.6,189.11 
	489.6,183.09 "/>
<polygon class="st1" points="485.85,192.86 485.85,194.37 487.35,194.37 487.35,197.37 485.85,197.37 485.85,198.87 489.6,198.87 
	489.6,192.86 "/>
<rect x="485.85" y="222.16" class="st1" width="3.76" height="6.01"/>
<polygon class="st1" points="485.85,212.4 485.85,213.9 487.35,213.9 487.35,216.9 485.85,216.9 485.85,218.41 489.6,218.41 
	489.6,212.4 "/>
<rect x="485.85" y="241.7" class="st1" width="3.76" height="6.01"/>
<polygon class="st1" points="485.85,231.93 485.85,233.43 487.35,233.43 487.35,236.44 485.85,236.44 485.85,237.94 489.6,237.94 
	489.6,231.93 "/>
<rect x="485.85" y="261.23" class="st1" width="3.76" height="6.01"/>
<rect x="492.61" y="259.73" class="st1" width="3.76" height="6.01"/>
<polygon class="st1" points="485.85,251.47 485.85,252.97 487.35,252.97 487.35,255.97 485.85,255.97 485.85,257.48 489.6,257.48 
	489.6,251.47 "/>
<polygon class="st1" points="500.12,251.47 500.12,252.97 501.62,252.97 501.62,255.97 500.12,255.97 500.12,257.48 503.88,257.48 
	503.88,251.47 "/>
<rect x="538.44" y="164.31" class="st1" width="3.76" height="6.01"/>
<rect x="538.44" y="174.08" class="st1" width="3.76" height="6.01"/>
<rect x="538.44" y="202.63" class="st1" width="3.76" height="6.01"/>
<polygon class="st1" points="538.44,183.09 538.44,184.6 539.94,184.6 539.94,187.6 538.44,187.6 538.44,189.11 542.2,189.11 
	542.2,183.09 "/>
<polygon class="st1" points="538.44,212.4 538.44,213.9 539.94,213.9 539.94,216.9 538.44,216.9 538.44,218.41 542.2,218.41 
	542.2,212.4 "/>
<polygon class="st1" points="538.44,222.16 538.44,223.67 539.94,223.67 539.94,226.67 538.44,226.67 538.44,228.17 542.2,228.17 
	542.2,222.16 "/>
<polygon class="st1" points="538.44,192.11 538.44,193.61 539.94,193.61 539.94,196.62 538.44,196.62 538.44,198.12 542.2,198.12 
	542.2,192.11 "/>
<polygon class="st1" points="538.44,251.47 538.44,252.97 539.94,252.97 539.94,255.97 538.44,255.97 538.44,257.48 542.2,257.48 
	542.2,251.47 "/>
<rect x="485.85" y="280.77" class="st1" width="3.76" height="6.01"/>
<rect x="492.61" y="269.5" class="st1" width="3.76" height="6.01"/>
<rect x="485.85" y="306.31" class="st1" width="3.76" height="6.01"/>
<rect x="492.61" y="288.28" class="st1" width="3.76" height="6.01"/>
<polygon class="st1" points="485.85,271 485.85,272.5 487.35,272.5 487.35,275.51 485.85,275.51 485.85,277.01 489.6,277.01 
	489.6,271 "/>
<polygon class="st1" points="485.85,316.83 485.85,318.33 487.35,318.33 487.35,321.34 485.85,321.34 485.85,322.84 489.6,322.84 
	489.6,316.83 "/>
<rect x="527.17" y="155.3" class="st1" width="3.76" height="6.01"/>
<rect x="527.17" y="202.63" class="st1" width="3.76" height="6.01"/>
<rect x="527.17" y="299.55" class="st1" width="5.26" height="0.75"/>
<polygon class="st1" points="527.17,173.33 527.17,174.83 528.67,174.83 528.67,177.84 527.17,177.84 527.17,179.34 530.93,179.34 
	530.93,173.33 "/>
<polygon class="st1" points="527.17,183.09 527.17,184.6 528.67,184.6 528.67,187.6 527.17,187.6 527.17,189.11 530.93,189.11 
	530.93,183.09 "/>
<polygon class="st1" points="527.17,192.86 527.17,194.37 528.67,194.37 528.67,197.37 527.17,197.37 527.17,198.87 530.93,198.87 
	530.93,192.86 "/>
<rect x="527.17" y="222.16" class="st1" width="3.76" height="6.01"/>
<polygon class="st1" points="527.17,212.4 527.17,213.9 528.67,213.9 528.67,216.9 527.17,216.9 527.17,218.41 530.93,218.41 
	530.93,212.4 "/>
<rect x="527.17" y="241.7" class="st1" width="3.76" height="6.01"/>
<polygon class="st1" points="527.17,231.93 527.17,233.43 528.67,233.43 528.67,236.44 527.17,236.44 527.17,237.94 530.93,237.94 
	530.93,231.93 "/>
<rect x="527.17" y="261.23" class="st1" width="3.76" height="6.01"/>
<polygon class="st1" points="527.17,251.47 527.17,252.97 528.67,252.97 528.67,255.97 527.17,255.97 527.17,257.48 530.93,257.48 
	530.93,251.47 "/>
<rect x="527.17" y="280.77" class="st1" width="3.76" height="6.01"/>
<rect x="527.17" y="306.31" class="st1" width="3.76" height="6.01"/>
<polygon class="st1" points="527.17,271 527.17,272.5 528.67,272.5 528.67,275.51 527.17,275.51 527.17,277.01 530.93,277.01 
	530.93,271 "/>
<polygon class="st1" points="527.17,316.83 527.17,318.33 528.67,318.33 528.67,321.34 527.17,321.34 527.17,322.84 530.93,322.84 
	530.93,316.83 "/>
<rect x="545.2" y="155.3" class="st1" width="3.76" height="6.01"/>
<rect x="545.2" y="202.63" class="st1" width="3.76" height="6.01"/>
<rect x="545.2" y="299.55" class="st1" width="5.26" height="0.75"/>
<polygon class="st1" points="545.2,173.33 545.2,174.83 546.7,174.83 546.7,177.84 545.2,177.84 545.2,179.34 548.96,179.34 
	548.96,173.33 "/>
<polygon class="st1" points="545.2,183.09 545.2,184.6 546.7,184.6 546.7,187.6 545.2,187.6 545.2,189.11 548.96,189.11 
	548.96,183.09 "/>
<polygon class="st1" points="545.2,192.86 545.2,194.37 546.7,194.37 546.7,197.37 545.2,197.37 545.2,198.87 548.96,198.87 
	548.96,192.86 "/>
<rect x="545.2" y="222.16" class="st1" width="3.76" height="6.01"/>
<polygon class="st1" points="545.2,212.4 545.2,213.9 546.7,213.9 546.7,216.9 545.2,216.9 545.2,218.41 548.96,218.41 
	548.96,212.4 "/>
<rect x="545.2" y="241.7" class="st1" width="3.76" height="6.01"/>
<polygon class="st1" points="545.2,231.93 545.2,233.43 546.7,233.43 546.7,236.44 545.2,236.44 545.2,237.94 548.96,237.94 
	548.96,231.93 "/>
<rect x="545.2" y="261.23" class="st1" width="3.76" height="6.01"/>
<polygon class="st1" points="545.2,251.47 545.2,252.97 546.7,252.97 546.7,255.97 545.2,255.97 545.2,257.48 548.96,257.48 
	548.96,251.47 "/>
<rect x="545.2" y="280.77" class="st1" width="3.76" height="6.01"/>
<rect x="545.2" y="306.31" class="st1" width="3.76" height="6.01"/>
<polygon class="st1" points="545.2,271 545.2,272.5 546.7,272.5 546.7,275.51 545.2,275.51 545.2,277.01 548.96,277.01 548.96,271 
	"/>
<polygon class="st1" points="545.2,316.83 545.2,318.33 546.7,318.33 546.7,321.34 545.2,321.34 545.2,322.84 548.96,322.84 
	548.96,316.83 "/>
<polygon class="st1" points="492.61,306.31 492.61,307.81 494.11,307.81 494.11,310.82 492.61,310.82 492.61,312.32 496.36,312.32 
	496.36,306.31 "/>
<polygon class="st1" points="492.61,316.08 492.61,317.58 494.11,317.58 494.11,320.59 492.61,320.59 492.61,322.09 496.36,322.09 
	496.36,316.08 "/>
<polygon class="st1" points="473.07,202.63 473.07,204.13 474.58,204.13 474.58,207.14 473.07,207.14 473.07,208.64 476.83,208.64 
	476.83,202.63 "/>
<polygon class="st1" points="473.07,240.95 473.07,242.45 474.58,242.45 474.58,245.45 473.07,245.45 473.07,246.96 476.83,246.96 
	476.83,240.95 "/>
<polygon class="st1" points="473.07,250.71 473.07,252.22 474.58,252.22 474.58,255.22 473.07,255.22 473.07,256.72 476.83,256.72 
	476.83,250.71 "/>
<polygon class="st1" points="473.07,270.25 473.07,271.75 474.58,271.75 474.58,274.76 473.07,274.76 473.07,276.26 476.83,276.26 
	476.83,270.25 "/>
<polygon class="st1" points="473.07,298.05 473.07,299.55 474.58,299.55 474.58,302.56 473.07,302.56 473.07,304.06 476.83,304.06 
	476.83,298.05 "/>
<polygon class="st1" points="473.07,306.31 473.07,307.81 474.58,307.81 474.58,310.82 473.07,310.82 473.07,312.32 476.83,312.32 
	476.83,306.31 "/>
<rect x="512.14" y="156.8" class="st1" width="3.76" height="6.01"/>
<rect x="512.14" y="166.57" class="st1" width="3.76" height="6.01"/>
<rect x="510.64" y="177.08" class="st1" width="5.26" height="0.75"/>
<rect x="510.64" y="225.17" class="st1" width="5.26" height="0.75"/>
<rect x="510.64" y="233.43" class="st1" width="5.26" height="0.75"/>
<polygon class="st1" points="512.14,183.85 512.14,185.35 513.65,185.35 513.65,188.35 512.14,188.35 512.14,189.86 515.9,189.86 
	515.9,183.85 "/>
<polygon class="st1" points="512.14,202.63 512.14,204.13 513.65,204.13 513.65,207.14 512.14,207.14 512.14,208.64 515.9,208.64 
	515.9,202.63 "/>
<polygon class="st1" points="512.14,240.95 512.14,242.45 513.65,242.45 513.65,245.45 512.14,245.45 512.14,246.96 515.9,246.96 
	515.9,240.95 "/>
<rect x="554.97" y="222.16" class="st1" width="3.76" height="6.01"/>
<rect x="554.97" y="231.93" class="st1" width="3.76" height="6.01"/>
<rect x="553.47" y="242.45" class="st1" width="5.26" height="0.75"/>
<rect x="553.47" y="290.53" class="st1" width="5.26" height="0.75"/>
<rect x="553.47" y="298.8" class="st1" width="5.26" height="0.75"/>
<polygon class="st1" points="554.97,249.21 554.97,250.71 556.47,250.71 556.47,253.72 554.97,253.72 554.97,255.22 558.72,255.22 
	558.72,249.21 "/>
<polygon class="st1" points="554.97,267.99 554.97,269.5 556.47,269.5 556.47,272.5 554.97,272.5 554.97,274.01 558.72,274.01 
	558.72,267.99 "/>
<polygon class="st1" points="554.97,306.31 554.97,307.81 556.47,307.81 556.47,310.82 554.97,310.82 554.97,312.32 558.72,312.32 
	558.72,306.31 "/>
<rect x="312.63" y="468.6" class="st2" width="321.6" height="0.99"/>
<path class="st3" d="M395.92,321.35v25.32l3.41,15.58c0,0-0.49,9.74,0,12.66c0.49,2.92-0.49,7.79-3.41,7.79s-4.38,7.3-4.38,7.3
	s-0.97,2.92-3.41,3.41s-2.43,0-2.43,0l-1.95,4.87l-40.41,26.78l7.79,19.47c0,0,12.17-4.38,13.15-5.84s9.25,1.95,9.25-1.46
	s1.46-12.17,4.38-12.66c2.92-0.49,27.26-11.68,27.26-11.68s12.66-14.12,13.63-19.47c0.97-5.36,5.36-20.45,5.36-20.45l12.17,20.45
	v40.9l-1.95,21.91l21.42-2.92c0,0-1.95-13.63,0-15.58c1.95-1.95,4.87-25.32,2.92-28.24c-1.95-2.92,0.97-16.07,0-18.01
	c-0.97-1.95-0.49-16.07-2.92-19.96c-2.43-3.89-17.04-43.82-17.04-43.82L395.92,321.35z"/>
<path class="st4" d="M437.3,455.23c0,0-7.3,12.17-2.43,13.63c4.87,1.46,14.12,0,15.09,0c0.97,0,18.5,0.49,18.5,0.49
	s11.68-2.43,11.68-5.84s-7.3-3.41-9.74-3.89c-2.43-0.49-17.53-6.33-17.53-6.33L437.3,455.23z"/>
<path class="st4" d="M345.57,425.6c0,0-14.07-1.86-13.48,3.18c0.59,5.05,5.61,12.96,6,13.85c0.26,0.61,3.34,8.27,5.29,13.15
	c1.41,3.58,3.54,6.83,6.25,9.57c1.91,1.91,4,3.45,5.37,2.85c3.13-1.35,0.22-8.06-0.3-10.48c-0.52-2.43-1.16-18.6-1.16-18.6
	L345.57,425.6z"/>
<path class="st5" d="M443.38,240.77l15.58-36.03c0,0-1.46-3.41-4.87-2.92c0,0-4.63-11.93-13.39-11.93c0,0-13.15-7.3-17.04,0
	c0,0-8.28,7.3-7.79,14.12c0.49,6.82,0.97,11.68,0.97,11.68s-7.79,0.97-6.33,4.87c1.46,3.89,1.95,3.89,0,5.36l-1.95,1.46
	c0,0-40.41,36.51-18.01,90.07l1.95,8.28v7.79c0,0,49.17,0.49,49.17,0c0-0.49-0.97-3.41,0.97-5.36c1.95-1.95,1.95-4.87,1.95-4.87
	s-1.95-9.74-0.97-12.66c0.97-2.92,1.46-15.58-0.49-18.5s-0.97-26.29-0.97-26.29l4.38-8.28l-1.46-4.87l-1.46-4.87L443.38,240.77z"/>
<path class="st6" d="M439.25,338.39c0,0-5.84-16.07-5.36-18.99c0.49-2.92-0.97-8.76-0.97-8.76l-1.95-39.44
	c0,0,8.28-35.05-10.22-40.9c0,0-4.68,2.04-8.52,8.62c-3.79,1.69-8.4,5.97-9.5,16.7c-1.95,18.99,6.82,67.67,11.2,75.95
	c4.38,8.28,7.3,14.12,7.3,14.12l4.58-2.04c0.19,0.38,0.29,0.57,0.29,0.57L439.25,338.39z"/>
<circle class="st7" cx="441.92" cy="234.93" r="1.46"/>
<rect x="441.44" y="234.93" class="st8" width="0.97" height="22.88"/>
<path class="st9" d="M424.4,340.09l3.89,8.28c0,0,8.76-2.92,8.76-4.38s-3.89-7.79-3.89-7.79L424.4,340.09z"/>
<path class="st5" d="M418.8,230.31c0,0-11.2,4.87-13.15,23.86c-1.95,18.99,6.82,67.67,11.2,75.95s7.3,14.12,7.3,14.12l13.15-5.84
	c0,0-5.84-16.07-5.36-18.99c0.49-2.92-0.97-8.76-0.97-8.76l-1.95-39.44C429.02,271.2,437.3,236.15,418.8,230.31z"/>
</svg>
