<?xml version="1.0" encoding="utf-8"?>
<!-- Generator: Adobe Illustrator 25.2.3, SVG Export Plug-In . SVG Version: 6.00 Build 0)  -->
<svg version="1.1" id="Capa_1" xmlns="http://www.w3.org/2000/svg" xmlns:xlink="http://www.w3.org/1999/xlink" x="0px" y="0px"
	 viewBox="0 0 841.89 595.28" style="enable-background:new 0 0 841.89 595.28;" xml:space="preserve">
<style type="text/css">
	.st0{fill:#302F42;}
	.st1{fill:#9F626B;}
	.st2{fill:#475BA6;}
	.st3{fill:#3A2616;}
	.st4{fill:#272733;}
	.st5{fill:#3C3C56;}
</style>
<path class="st0" d="M482.76,428.7v-43.34C482.76,385.36,465.87,416.09,482.76,428.7z"/>
<path class="st0" d="M481.72,428.69l31.93-29.31C513.64,399.38,479.59,407.72,481.72,428.69z"/>
<path class="st1" d="M465.03,245.67c-2.9,1.36-6.35,0.12-7.72-2.78c-0.15-0.31-0.26-0.63-0.35-0.96l-20.56-1.46l6.51-8.5l18.53,2.69
	c3.16-0.63,6.23,1.42,6.86,4.58C468.83,241.88,467.48,244.54,465.03,245.67L465.03,245.67z"/>
<path class="st2" d="M385.02,232.68l-6.47-3.75c-4.02-2.33-5.56-7.37-3.51-11.54l-0.22-0.07c1.98-3.82,6.37-5.73,10.51-4.57
	l69.99,18.63l-2.53,16.77L385.02,232.68z"/>
<circle class="st1" cx="389.45" cy="186.49" r="14.21"/>
<path class="st3" d="M379.39,197.74c2.65,2.82,7.58,1.31,7.92-2.55c0.03-0.3,0.03-0.6-0.01-0.9c-0.18-1.71-1.17-3.26-0.93-5.07
	c0.05-0.45,0.22-0.88,0.49-1.24c2.11-2.83,7.07,1.27,9.07-1.3c1.22-1.57-0.21-4.04,0.72-5.8c1.24-2.32,4.91-1.17,7.21-2.44
	c2.56-1.41,2.41-5.34,0.72-7.73c-2.05-2.91-5.66-4.47-9.21-4.69c-3.56-0.22-7.09,0.74-10.41,2.03c-3.77,1.47-7.52,3.5-9.84,6.82
	c-2.82,4.04-3.1,9.46-1.68,14.18C374.29,191.93,377.23,195.43,379.39,197.74z"/>
<polygon class="st1" points="381.39,422.05 388.12,422.05 391.32,396.09 381.39,396.1 "/>
<path class="st4" d="M379.68,428.58l21.7,0v-0.27c0-4.66-3.78-8.45-8.45-8.45h0l-13.25,0L379.68,428.58z"/>
<polygon class="st1" points="435,421.83 441.55,420.27 438.64,394.28 428.98,396.58 "/>
<path class="st4" d="M434.84,428.58l21.11-5.04l-0.06-0.27c-1.08-4.54-5.64-7.34-10.18-6.26l0,0l-12.89,3.08L434.84,428.58z"/>
<path class="st5" d="M418.03,288.98l26.38,124.38l-16.52-1l-28.49-70.49l-4.29,71.17l-18.05,1.07l0.22-103.08
	c0,0-7.53-16.21-1-25.05C382.81,277.13,418.03,288.98,418.03,288.98z"/>
<path class="st2" d="M378.71,206.74l15.99-0.36h1.93c7.67,6.25,10.9,20.17,11.98,30.01L420.13,295c0,0-29.2,8.33-45.8-1.39
	l-0.93-38.41C373.41,255.19,369.31,216.14,378.71,206.74z"/>
<path class="st1" d="M455.26,292.35c-3.19-0.24-5.59-3.02-5.35-6.21c0.03-0.34,0.08-0.68,0.17-1.01l-17.19-11.38l9.85-4.2
	l14.81,11.45c3.06,1,4.73,4.3,3.72,7.36C460.43,290.91,457.95,292.56,455.26,292.35z"/>
<path class="st2" d="M382.73,231.65l-3.8-6.44c-2.36-4-1.22-9.15,2.61-11.78l0,0c3.5-2.41,8.23-1.98,11.24,1.02l61.03,60.68
	l-10.45,13.36L382.73,231.65z"/>
<path class="st0" d="M307.1,429.02h228.27c0.33,0,0.6-0.27,0.6-0.6c0-0.33-0.27-0.6-0.6-0.6H307.1c-0.33,0-0.6,0.27-0.6,0.6
	C306.5,428.75,306.77,429.02,307.1,429.02z"/>
</svg>
